<svg width="24" height="24" viewBox="0 0 24 24" fill="none" xmlns="http://www.w3.org/2000/svg">
<path d="M3 2.25C2.80109 2.25 2.61032 2.32902 2.46967 2.46967C2.32902 2.61032 2.25 2.80109 2.25 3C2.25 3.19891 2.32902 3.38968 2.46967 3.53033C2.61032 3.67098 2.80109 3.75 3 3.75V2.25ZM5 3L5.748 2.942C5.73339 2.75365 5.64824 2.57775 5.50957 2.44946C5.37089 2.32117 5.18891 2.24994 5 2.25V3ZM21 6L21.745 6.083C21.7567 5.97819 21.7461 5.87209 21.714 5.77164C21.6819 5.67118 21.6289 5.57863 21.5586 5.50002C21.4883 5.42141 21.4022 5.35851 21.306 5.31543C21.2097 5.27235 21.1055 5.25006 21 5.25V6ZM3 3.75H5V2.25H3V3.75ZM8.037 16.606L18.392 15.867L18.285 14.371L7.931 15.111L8.037 16.606ZM20.929 13.427L21.745 6.083L20.255 5.917L19.439 13.262L20.929 13.427ZM4.252 3.057L4.483 6.058L5.979 5.942L5.748 2.942L4.252 3.057ZM4.483 6.058L5.1 14.074L6.595 13.959L5.979 5.942L4.483 6.058ZM21 5.25H5.23V6.75H21V5.25ZM18.392 15.867C19.0334 15.8211 19.6385 15.5519 20.102 15.1061C20.5655 14.6603 20.8581 14.0662 20.929 13.427L19.439 13.262C19.4067 13.5526 19.2736 13.8228 19.0628 14.0254C18.8519 14.228 18.5767 14.3503 18.285 14.371L18.392 15.867ZM7.931 15.11C7.60155 15.1337 7.27611 15.0261 7.02578 14.8106C6.77544 14.5951 6.62057 14.2893 6.595 13.96L5.1 14.074C5.15577 14.7984 5.49596 15.4714 6.04626 15.9458C6.59657 16.4202 7.31226 16.6576 8.037 16.606L7.931 15.11Z" fill="#FEFDFB"/>
<path d="M8.5 20.5H8.51V20.51H8.5V20.5ZM17.5 20.5H17.51V20.51H17.5V20.5Z" stroke="#FEFDFB" stroke-width="2.25" stroke-linejoin="round"/>
</svg>
